<mxfile host="app.diagrams.net" agent="Mozilla/5.0 (Macintosh; Intel Mac OS X 10_15_7) AppleWebKit/537.36 (KHTML, like Gecko) Chrome/132.0.0.0 Safari/537.36" version="26.1.1">
  <diagram name="Page-1" id="13e1069c-82ec-6db2-03f1-153e76fe0fe0">
    <mxGraphModel dx="1207" dy="805" grid="1" gridSize="10" guides="1" tooltips="1" connect="1" arrows="1" fold="1" page="1" pageScale="1" pageWidth="1100" pageHeight="850" background="none" math="0" shadow="0">
      <root>
        <mxCell id="0" />
        <mxCell id="1" parent="0" />
        <mxCell id="7baba1c4bc27f4b0-2" value="Frontend" style="shape=umlLifeline;perimeter=lifelinePerimeter;whiteSpace=wrap;html=1;container=1;collapsible=0;recursiveResize=0;outlineConnect=0;rounded=1;shadow=0;comic=0;labelBackgroundColor=none;strokeWidth=1;fontFamily=Verdana;fontSize=12;align=center;" parent="1" vertex="1">
          <mxGeometry x="240" y="80" width="100" height="580" as="geometry" />
        </mxCell>
        <mxCell id="7baba1c4bc27f4b0-10" value="" style="html=1;points=[];perimeter=orthogonalPerimeter;rounded=0;shadow=0;comic=0;labelBackgroundColor=none;strokeWidth=1;fontFamily=Verdana;fontSize=12;align=center;" parent="7baba1c4bc27f4b0-2" vertex="1">
          <mxGeometry x="45" y="100" width="10" height="460" as="geometry" />
        </mxCell>
        <mxCell id="a8C5fQ-JHpRyu1NwxMDZ-14" value="" style="endArrow=classic;html=1;rounded=0;" parent="7baba1c4bc27f4b0-2" edge="1">
          <mxGeometry width="50" height="50" relative="1" as="geometry">
            <mxPoint x="204.47" y="309.67" as="sourcePoint" />
            <mxPoint x="55.00488372093022" y="309.67" as="targetPoint" />
          </mxGeometry>
        </mxCell>
        <mxCell id="a8C5fQ-JHpRyu1NwxMDZ-15" value="Confirm" style="edgeLabel;html=1;align=center;verticalAlign=middle;resizable=0;points=[];" parent="a8C5fQ-JHpRyu1NwxMDZ-14" vertex="1" connectable="0">
          <mxGeometry x="-0.0926" y="-2" relative="1" as="geometry">
            <mxPoint as="offset" />
          </mxGeometry>
        </mxCell>
        <mxCell id="7baba1c4bc27f4b0-3" value="Master" style="shape=umlLifeline;perimeter=lifelinePerimeter;whiteSpace=wrap;html=1;container=1;collapsible=0;recursiveResize=0;outlineConnect=0;rounded=1;shadow=0;comic=0;labelBackgroundColor=none;strokeWidth=1;fontFamily=Verdana;fontSize=12;align=center;" parent="1" vertex="1">
          <mxGeometry x="400" y="80" width="100" height="580" as="geometry" />
        </mxCell>
        <mxCell id="7baba1c4bc27f4b0-13" value="" style="html=1;points=[];perimeter=orthogonalPerimeter;rounded=0;shadow=0;comic=0;labelBackgroundColor=none;strokeWidth=1;fontFamily=Verdana;fontSize=12;align=center;" parent="7baba1c4bc27f4b0-3" vertex="1">
          <mxGeometry x="45" y="120" width="10" height="440" as="geometry" />
        </mxCell>
        <mxCell id="a8C5fQ-JHpRyu1NwxMDZ-12" value="" style="endArrow=classic;html=1;rounded=0;exitX=0.967;exitY=0.098;exitDx=0;exitDy=0;exitPerimeter=0;" parent="7baba1c4bc27f4b0-3" edge="1">
          <mxGeometry width="50" height="50" relative="1" as="geometry">
            <mxPoint x="55.00000000000006" y="199.99999999999994" as="sourcePoint" />
            <mxPoint x="55.329999999999984" y="250.39999999999998" as="targetPoint" />
            <Array as="points">
              <mxPoint x="90" y="200.39999999999998" />
              <mxPoint x="90" y="230.39999999999998" />
              <mxPoint x="90" y="250.39999999999998" />
            </Array>
          </mxGeometry>
        </mxCell>
        <mxCell id="a8C5fQ-JHpRyu1NwxMDZ-13" value="Select node&lt;div&gt;for upload&lt;/div&gt;" style="edgeLabel;html=1;align=center;verticalAlign=middle;resizable=0;points=[];" parent="a8C5fQ-JHpRyu1NwxMDZ-12" vertex="1" connectable="0">
          <mxGeometry x="-0.0446" y="-1" relative="1" as="geometry">
            <mxPoint x="11" as="offset" />
          </mxGeometry>
        </mxCell>
        <mxCell id="a8C5fQ-JHpRyu1NwxMDZ-18" value="" style="endArrow=classic;html=1;rounded=0;entryX=-0.067;entryY=0.034;entryDx=0;entryDy=0;entryPerimeter=0;" parent="7baba1c4bc27f4b0-3" target="a8C5fQ-JHpRyu1NwxMDZ-17" edge="1">
          <mxGeometry width="50" height="50" relative="1" as="geometry">
            <mxPoint x="55.00333333333326" y="270" as="sourcePoint" />
            <mxPoint x="125.17" y="270" as="targetPoint" />
          </mxGeometry>
        </mxCell>
        <mxCell id="a8C5fQ-JHpRyu1NwxMDZ-19" value="Upload request" style="edgeLabel;html=1;align=center;verticalAlign=middle;resizable=0;points=[];" parent="a8C5fQ-JHpRyu1NwxMDZ-18" vertex="1" connectable="0">
          <mxGeometry x="0.2061" y="1" relative="1" as="geometry">
            <mxPoint as="offset" />
          </mxGeometry>
        </mxCell>
        <mxCell id="a8C5fQ-JHpRyu1NwxMDZ-20" value="" style="endArrow=classic;html=1;rounded=0;entryX=1;entryY=0.456;entryDx=0;entryDy=0;entryPerimeter=0;" parent="7baba1c4bc27f4b0-3" edge="1">
          <mxGeometry width="50" height="50" relative="1" as="geometry">
            <mxPoint x="189.5" y="289.63" as="sourcePoint" />
            <mxPoint x="55" y="289.63" as="targetPoint" />
          </mxGeometry>
        </mxCell>
        <mxCell id="a8C5fQ-JHpRyu1NwxMDZ-21" value="Confirm" style="edgeLabel;html=1;align=center;verticalAlign=middle;resizable=0;points=[];" parent="a8C5fQ-JHpRyu1NwxMDZ-20" vertex="1" connectable="0">
          <mxGeometry x="-0.1599" y="1" relative="1" as="geometry">
            <mxPoint as="offset" />
          </mxGeometry>
        </mxCell>
        <mxCell id="a8C5fQ-JHpRyu1NwxMDZ-33" value="" style="endArrow=classic;html=1;rounded=0;exitX=0.967;exitY=0.098;exitDx=0;exitDy=0;exitPerimeter=0;" parent="7baba1c4bc27f4b0-3" edge="1">
          <mxGeometry width="50" height="50" relative="1" as="geometry">
            <mxPoint x="55.00000000000006" y="460" as="sourcePoint" />
            <mxPoint x="55.329999999999984" y="510.4" as="targetPoint" />
            <Array as="points">
              <mxPoint x="90" y="460.4" />
              <mxPoint x="90" y="490.4" />
              <mxPoint x="90" y="510.4" />
            </Array>
          </mxGeometry>
        </mxCell>
        <mxCell id="a8C5fQ-JHpRyu1NwxMDZ-34" value="Write file-node&amp;nbsp;&lt;div&gt;pair into db&lt;/div&gt;" style="edgeLabel;html=1;align=center;verticalAlign=middle;resizable=0;points=[];" parent="a8C5fQ-JHpRyu1NwxMDZ-33" vertex="1" connectable="0">
          <mxGeometry x="-0.0446" y="-1" relative="1" as="geometry">
            <mxPoint x="11" as="offset" />
          </mxGeometry>
        </mxCell>
        <mxCell id="a8C5fQ-JHpRyu1NwxMDZ-31" value="" style="endArrow=classic;html=1;rounded=0;entryX=0.784;entryY=0.821;entryDx=0;entryDy=0;entryPerimeter=0;exitX=-0.14;exitY=0.886;exitDx=0;exitDy=0;exitPerimeter=0;" parent="7baba1c4bc27f4b0-3" edge="1">
          <mxGeometry width="50" height="50" relative="1" as="geometry">
            <mxPoint x="43.59999999999991" y="530.0000000000001" as="sourcePoint" />
            <mxPoint x="-101.66000000000005" y="530.1599999999999" as="targetPoint" />
          </mxGeometry>
        </mxCell>
        <mxCell id="a8C5fQ-JHpRyu1NwxMDZ-32" value="Upload done" style="edgeLabel;html=1;align=center;verticalAlign=middle;resizable=0;points=[];" parent="a8C5fQ-JHpRyu1NwxMDZ-31" vertex="1" connectable="0">
          <mxGeometry x="0.1426" y="-2" relative="1" as="geometry">
            <mxPoint as="offset" />
          </mxGeometry>
        </mxCell>
        <mxCell id="7baba1c4bc27f4b0-4" value="Node" style="shape=umlLifeline;perimeter=lifelinePerimeter;whiteSpace=wrap;html=1;container=1;collapsible=0;recursiveResize=0;outlineConnect=0;rounded=1;shadow=0;comic=0;labelBackgroundColor=none;strokeWidth=1;fontFamily=Verdana;fontSize=12;align=center;" parent="1" vertex="1">
          <mxGeometry x="540" y="80" width="100" height="580" as="geometry" />
        </mxCell>
        <mxCell id="a8C5fQ-JHpRyu1NwxMDZ-17" value="" style="rounded=0;whiteSpace=wrap;html=1;" parent="7baba1c4bc27f4b0-4" vertex="1">
          <mxGeometry x="45" y="260" width="10" height="310" as="geometry" />
        </mxCell>
        <mxCell id="QjxvM4A1D3iSgtSSPqwN-3" value="" style="endArrow=classic;html=1;rounded=0;exitX=0;exitY=0.5;exitDx=0;exitDy=0;entryX=1.039;entryY=0.671;entryDx=0;entryDy=0;entryPerimeter=0;" edge="1" parent="7baba1c4bc27f4b0-4">
          <mxGeometry width="50" height="50" relative="1" as="geometry">
            <mxPoint x="45" y="450" as="sourcePoint" />
            <mxPoint x="-85" y="450" as="targetPoint" />
          </mxGeometry>
        </mxCell>
        <mxCell id="QjxvM4A1D3iSgtSSPqwN-4" value="Upload done" style="edgeLabel;html=1;align=center;verticalAlign=middle;resizable=0;points=[];" vertex="1" connectable="0" parent="QjxvM4A1D3iSgtSSPqwN-3">
          <mxGeometry x="0.0095" y="1" relative="1" as="geometry">
            <mxPoint as="offset" />
          </mxGeometry>
        </mxCell>
        <mxCell id="7baba1c4bc27f4b0-8" value="User" style="shape=umlLifeline;perimeter=lifelinePerimeter;whiteSpace=wrap;html=1;container=1;collapsible=0;recursiveResize=0;outlineConnect=0;rounded=1;shadow=0;comic=0;labelBackgroundColor=none;strokeWidth=1;fontFamily=Verdana;fontSize=12;align=center;" parent="1" vertex="1">
          <mxGeometry x="100" y="80" width="100" height="580" as="geometry" />
        </mxCell>
        <mxCell id="7baba1c4bc27f4b0-9" value="" style="html=1;points=[];perimeter=orthogonalPerimeter;rounded=0;shadow=0;comic=0;labelBackgroundColor=none;strokeWidth=1;fontFamily=Verdana;fontSize=12;align=center;" parent="7baba1c4bc27f4b0-8" vertex="1">
          <mxGeometry x="45" y="100" width="10" height="470" as="geometry" />
        </mxCell>
        <mxCell id="7baba1c4bc27f4b0-11" value="Upload file" style="html=1;verticalAlign=bottom;endArrow=block;entryX=0;entryY=0;labelBackgroundColor=none;fontFamily=Verdana;fontSize=12;edgeStyle=elbowEdgeStyle;elbow=vertical;" parent="1" source="7baba1c4bc27f4b0-9" target="7baba1c4bc27f4b0-10" edge="1">
          <mxGeometry x="0.0077" relative="1" as="geometry">
            <mxPoint x="220" y="190" as="sourcePoint" />
            <mxPoint as="offset" />
          </mxGeometry>
        </mxCell>
        <mxCell id="7baba1c4bc27f4b0-14" value="Upload file request&lt;div&gt;(name, size)&lt;/div&gt;" style="html=1;verticalAlign=bottom;endArrow=block;entryX=0;entryY=0;labelBackgroundColor=none;fontFamily=Verdana;fontSize=12;edgeStyle=elbowEdgeStyle;elbow=vertical;" parent="1" source="7baba1c4bc27f4b0-10" target="7baba1c4bc27f4b0-13" edge="1">
          <mxGeometry relative="1" as="geometry">
            <mxPoint x="370" y="200" as="sourcePoint" />
          </mxGeometry>
        </mxCell>
        <mxCell id="a8C5fQ-JHpRyu1NwxMDZ-1" value="" style="endArrow=classic;html=1;rounded=0;exitX=0.967;exitY=0.098;exitDx=0;exitDy=0;exitPerimeter=0;" parent="1" edge="1">
          <mxGeometry width="50" height="50" relative="1" as="geometry">
            <mxPoint x="455.00000000000006" y="219.59999999999997" as="sourcePoint" />
            <mxPoint x="455.33" y="270" as="targetPoint" />
            <Array as="points">
              <mxPoint x="490" y="220" />
              <mxPoint x="490" y="250" />
              <mxPoint x="490" y="270" />
            </Array>
          </mxGeometry>
        </mxCell>
        <mxCell id="a8C5fQ-JHpRyu1NwxMDZ-5" value="Check capacity" style="edgeLabel;html=1;align=center;verticalAlign=middle;resizable=0;points=[];" parent="a8C5fQ-JHpRyu1NwxMDZ-1" vertex="1" connectable="0">
          <mxGeometry x="-0.0446" y="-1" relative="1" as="geometry">
            <mxPoint x="11" as="offset" />
          </mxGeometry>
        </mxCell>
        <mxCell id="a8C5fQ-JHpRyu1NwxMDZ-10" value="loop" style="shape=umlFrame;whiteSpace=wrap;html=1;pointerEvents=0;" parent="1" vertex="1">
          <mxGeometry x="260" y="400" width="360" height="120" as="geometry" />
        </mxCell>
        <mxCell id="a8C5fQ-JHpRyu1NwxMDZ-22" value="" style="endArrow=classic;html=1;rounded=0;exitX=1.17;exitY=0.664;exitDx=0;exitDy=0;exitPerimeter=0;entryX=0.189;entryY=0.549;entryDx=0;entryDy=0;entryPerimeter=0;" parent="1" target="7baba1c4bc27f4b0-13" edge="1">
          <mxGeometry width="50" height="50" relative="1" as="geometry">
            <mxPoint x="296.70000000000005" y="441.20000000000005" as="sourcePoint" />
            <mxPoint x="447.1300000000001" y="439.9999999999998" as="targetPoint" />
          </mxGeometry>
        </mxCell>
        <mxCell id="a8C5fQ-JHpRyu1NwxMDZ-23" value="Send chunk" style="edgeLabel;html=1;align=center;verticalAlign=middle;resizable=0;points=[];" parent="a8C5fQ-JHpRyu1NwxMDZ-22" vertex="1" connectable="0">
          <mxGeometry x="-0.2833" y="1" relative="1" as="geometry">
            <mxPoint as="offset" />
          </mxGeometry>
        </mxCell>
        <mxCell id="a8C5fQ-JHpRyu1NwxMDZ-24" value="" style="endArrow=classic;html=1;rounded=0;exitX=1.141;exitY=0.608;exitDx=0;exitDy=0;exitPerimeter=0;entryX=-0.185;entryY=0.412;entryDx=0;entryDy=0;entryPerimeter=0;" parent="1" source="7baba1c4bc27f4b0-13" target="a8C5fQ-JHpRyu1NwxMDZ-17" edge="1">
          <mxGeometry width="50" height="50" relative="1" as="geometry">
            <mxPoint x="510" y="460" as="sourcePoint" />
            <mxPoint x="560" y="410" as="targetPoint" />
          </mxGeometry>
        </mxCell>
        <mxCell id="a8C5fQ-JHpRyu1NwxMDZ-29" value="Send chunk" style="edgeLabel;html=1;align=center;verticalAlign=middle;resizable=0;points=[];" parent="a8C5fQ-JHpRyu1NwxMDZ-24" vertex="1" connectable="0">
          <mxGeometry x="0.0145" y="-1" relative="1" as="geometry">
            <mxPoint as="offset" />
          </mxGeometry>
        </mxCell>
        <mxCell id="a8C5fQ-JHpRyu1NwxMDZ-26" value="" style="endArrow=classic;html=1;rounded=0;exitX=0;exitY=0.5;exitDx=0;exitDy=0;entryX=1.039;entryY=0.671;entryDx=0;entryDy=0;entryPerimeter=0;" parent="1" source="a8C5fQ-JHpRyu1NwxMDZ-17" target="7baba1c4bc27f4b0-13" edge="1">
          <mxGeometry width="50" height="50" relative="1" as="geometry">
            <mxPoint x="510" y="480" as="sourcePoint" />
            <mxPoint x="480" y="470" as="targetPoint" />
          </mxGeometry>
        </mxCell>
        <mxCell id="a8C5fQ-JHpRyu1NwxMDZ-28" value="Chunk received" style="edgeLabel;html=1;align=center;verticalAlign=middle;resizable=0;points=[];" parent="a8C5fQ-JHpRyu1NwxMDZ-26" vertex="1" connectable="0">
          <mxGeometry x="0.0095" y="1" relative="1" as="geometry">
            <mxPoint as="offset" />
          </mxGeometry>
        </mxCell>
        <mxCell id="a8C5fQ-JHpRyu1NwxMDZ-35" value="" style="endArrow=classic;html=1;rounded=0;" parent="1" edge="1">
          <mxGeometry width="50" height="50" relative="1" as="geometry">
            <mxPoint x="290" y="620" as="sourcePoint" />
            <mxPoint x="160.00043478260875" y="620" as="targetPoint" />
          </mxGeometry>
        </mxCell>
        <mxCell id="a8C5fQ-JHpRyu1NwxMDZ-36" value="Upload done" style="edgeLabel;html=1;align=center;verticalAlign=middle;resizable=0;points=[];" parent="a8C5fQ-JHpRyu1NwxMDZ-35" vertex="1" connectable="0">
          <mxGeometry x="0.1203" relative="1" as="geometry">
            <mxPoint as="offset" />
          </mxGeometry>
        </mxCell>
        <mxCell id="a8C5fQ-JHpRyu1NwxMDZ-37" value="Successful file uploading (MVP)" style="text;html=1;align=center;verticalAlign=middle;resizable=0;points=[];autosize=1;strokeColor=none;fillColor=none;" parent="1" vertex="1">
          <mxGeometry x="95" y="28" width="190" height="30" as="geometry" />
        </mxCell>
        <mxCell id="QjxvM4A1D3iSgtSSPqwN-1" value="" style="endArrow=classic;html=1;rounded=0;exitX=0;exitY=0.5;exitDx=0;exitDy=0;entryX=0.976;entryY=0.705;entryDx=0;entryDy=0;entryPerimeter=0;" edge="1" parent="1" target="7baba1c4bc27f4b0-10">
          <mxGeometry width="50" height="50" relative="1" as="geometry">
            <mxPoint x="440" y="505" as="sourcePoint" />
            <mxPoint x="310" y="505" as="targetPoint" />
          </mxGeometry>
        </mxCell>
        <mxCell id="QjxvM4A1D3iSgtSSPqwN-2" value="Chunk received" style="edgeLabel;html=1;align=center;verticalAlign=middle;resizable=0;points=[];" vertex="1" connectable="0" parent="QjxvM4A1D3iSgtSSPqwN-1">
          <mxGeometry x="0.0095" y="1" relative="1" as="geometry">
            <mxPoint as="offset" />
          </mxGeometry>
        </mxCell>
      </root>
    </mxGraphModel>
  </diagram>
</mxfile>
